<svg width="32" height="32" viewBox="0 0 32 32" fill="none" xmlns="http://www.w3.org/2000/svg">
  <rect width="32" height="32" rx="6" fill="#0a0f0d"/>
  <path d="M16 4 C12.4 9.3, 7.1 12.4, 7.1 19.5 C7.1 24.8, 11.3 28, 16 28 C20.7 28, 24.9 24.8, 24.9 19.5 C24.9 12.4, 19.6 9.3, 16 4Z" fill="none" stroke="#2d6a4f" stroke-width="1.5"/>
  <path d="M16 7.1 C13.5 11.5, 9.5 14.2, 9.5 19.5 C9.5 23, 12.4 25.8, 16 25.8 C19.6 25.8, 22.5 23, 22.5 19.5 C22.5 14.2, 18.5 11.5, 16 7.1Z" fill="rgba(45,106,79,0.3)" stroke="#40916c" stroke-width="1"/>
  <line x1="16" y1="12.4" x2="16" y2="24.9" stroke="#52b788" stroke-width="1" opacity="0.7"/>
  <line x1="12.4" y1="17.8" x2="16" y2="14.2" stroke="#52b788" stroke-width="0.8" opacity="0.5"/>
  <line x1="19.6" y1="18.7" x2="16" y2="15.1" stroke="#52b788" stroke-width="0.8" opacity="0.5"/>
</svg>
