<svg width="1200" height="630" viewBox="0 0 1200 630" fill="none" xmlns="http://www.w3.org/2000/svg">
  <!-- Open Graph Image for Social Media Sharing -->

  <!-- Background -->
  <rect width="1200" height="630" fill="#0a0f0d"/>

  <!-- Subtle gradient overlay -->
  <defs>
    <radialGradient id="glow1" cx="20%" cy="0%" r="50%">
      <stop offset="0%" stop-color="#2d6a4f" stop-opacity="0.15"/>
      <stop offset="100%" stop-color="#0a0f0d" stop-opacity="0"/>
    </radialGradient>
    <radialGradient id="glow2" cx="80%" cy="100%" r="50%">
      <stop offset="0%" stop-color="#2d6a4f" stop-opacity="0.1"/>
      <stop offset="100%" stop-color="#0a0f0d" stop-opacity="0"/>
    </radialGradient>
  </defs>
  <rect width="1200" height="630" fill="url(#glow1)"/>
  <rect width="1200" height="630" fill="url(#glow2)"/>

  <!-- Logo Icon -->
  <g transform="translate(100, 165)">
    <!-- Outer leaf shape -->
    <path
      d="M150 17 C119.4 56.8, 68.1 85.2, 68.1 156.6 C68.1 199.2, 102.3 227.6, 150 227.6 C197.7 227.6, 231.9 199.2, 231.9 156.6 C231.9 85.2, 180.6 56.8, 150 17Z"
      fill="none"
      stroke="#2d6a4f"
      stroke-width="10.6"
      stroke-linecap="round"
      stroke-linejoin="round"
    />

    <!-- Inner leaf shape with fill -->
    <path
      d="M150 45.4 C128.7 85.2, 96.4 113.6, 96.4 156.6 C96.4 185.1, 119.4 213.5, 150 213.5 C180.6 213.5, 203.6 185.1, 203.6 156.6 C203.6 113.6, 171.3 85.2, 150 45.4Z"
      fill="rgba(45,106,79,0.25)"
      stroke="#40916c"
      stroke-width="7.1"
      stroke-linecap="round"
      stroke-linejoin="round"
    />

    <!-- Central vein -->
    <line x1="150" y1="99.3" x2="150" y2="199.2" stroke="#52b788" stroke-width="7.1" stroke-linecap="round" opacity="0.7"/>

    <!-- Left branch vein -->
    <line x1="119.4" y1="142.3" x2="150" y2="113.9" stroke="#52b788" stroke-width="5.7" stroke-linecap="round" opacity="0.5"/>

    <!-- Right branch vein -->
    <line x1="180.6" y1="149.4" x2="150" y2="121" stroke="#52b788" stroke-width="5.7" stroke-linecap="round" opacity="0.5"/>
  </g>

  <!-- Text Content -->
  <!-- Main Title -->
  <text x="430" y="265" font-family="Georgia, 'DM Serif Display', serif" font-size="72" font-weight="400" fill="#e8efe6">
    Los Álamos Capital
  </text>

  <!-- Subtitle -->
  <text x="430" y="330" font-family="'DM Sans', -apple-system, sans-serif" font-size="28" font-weight="400" fill="#8a9e93">
    Track Record Público de Inversiones
  </text>

  <!-- Tagline -->
  <text x="430" y="400" font-family="Georgia, 'DM Serif Display', serif" font-size="24" font-style="italic" fill="#52b788">
    Donde hay álamos, hay raíces
  </text>

  <!-- URL -->
  <text x="430" y="500" font-family="'JetBrains Mono', monospace" font-size="20" fill="#5a6e63">
    losalamoscapital.com
  </text>

  <!-- Decorative line -->
  <line x1="430" y1="450" x2="770" y2="450" stroke="#2d6a4f" stroke-width="1" opacity="0.5"/>
</svg>
